<?xml version="1.0" encoding="UTF-8" standalone="no"?>
<svg width="113px" height="69px" viewBox="0 0 113 69" version="1.1" xmlns="http://www.w3.org/2000/svg" xmlns:xlink="http://www.w3.org/1999/xlink" xmlns:sketch="http://www.bohemiancoding.com/sketch/ns">
    <!-- Generator: Sketch 3.2.1 (9971) - http://www.bohemiancoding.com/sketch -->
    <title>logo</title>
    <desc>Created with Sketch.</desc>
    <defs>
        <linearGradient x1="36.1180646%" y1="76.4883767%" x2="50%" y2="100%" id="linearGradient-1">
            <stop stop-color="#CC4242" offset="0%"></stop>
            <stop stop-color="#EE6A01" offset="100%"></stop>
        </linearGradient>
        <linearGradient x1="83.7436517%" y1="120.150974%" x2="58.2665804%" y2="100%" id="linearGradient-2">
            <stop stop-color="#CC4242" offset="0%"></stop>
            <stop stop-color="#EE6A01" offset="100%"></stop>
        </linearGradient>
    </defs>
    <g id="Website" stroke="none" stroke-width="1" fill="none" fill-rule="evenodd" sketch:type="MSPage">
        <g id="Full" sketch:type="MSArtboardGroup" transform="translate(-201.000000, -11.000000)">
            <g id="logo" sketch:type="MSLayerGroup" transform="translate(201.000000, 11.000000)">
                <g id="Humming-F" sketch:type="MSShapeGroup">
                    <path d="M21.1833843,56.7606222 C20.8868281,57.7979909 26.4343098,69.1407529 25.2659701,68.7587442 C24.0976305,68.3767355 17.638532,57.5148774 17.638532,57.5148774 L30.9994706,10.7776405 C30.9994706,10.7776405 31.3502199,6.77726881 36.5454223,9.40909087 C40.8316139,11.5804199 55.043722,11.5804195 55.043722,11.5804195 L48.050462,12.3041956 L34.5100753,13.6225561 L28.9248099,33.1600961 L38.5019933,32.3252021 L37.4650524,35.9524739 L27.8878689,36.7873679 C27.8878689,36.7873679 22.9851807,50.4578479 21.1833843,56.7606222 L21.1833843,56.7606222 Z" id="F" fill="url(#linearGradient-1)"></path>
                    <path d="M31.3277059,20.4939356 L6.08983912,0.187365658 C6.08983912,0.187365658 5.96299691,10.2013837 15.6416283,18.181309 C25.3202597,26.1612344 31.3277059,20.4939356 31.3277059,20.4939356 L31.3277059,20.4939356 Z" id="Path-2" fill="#CC4242"></path>
                    <path d="M0.017035575,15.0443888 C0.017035575,15.0443888 16.741494,27.6607124 24.7157056,28.0779986 C32.6899173,28.4952848 29.8687254,21.8379081 29.8687254,21.8379081 L0.017035575,15.0443888 Z" id="Path-3" fill="url(#linearGradient-2)"></path>
                </g>
                <path d="M47.3984303,30.0943693 L47.3984303,56.6585366 L44.4976448,56.6585366 L44.4976448,30.0943693 L47.3984303,30.0943693 Z M56.1535286,30.6285013 L56.1535286,33.3881836 L53.4637092,33.3881836 L53.4637092,30.6285013 L56.1535286,30.6285013 Z M53.3230651,38.3912205 L56.2238506,38.3912205 L56.2238506,56.6585366 L53.3230651,56.6585366 L53.3230651,38.3912205 Z M63.5021853,40.2962914 L59.93334,40.2962914 L59.93334,38.3912205 L63.5021853,38.3912205 L63.5900879,33.5484232 L66.4029709,32.7116163 L66.4029709,38.3912205 L70.9035836,38.3912205 L70.9035836,40.2962914 L66.4029709,40.2962914 L66.4029709,51.2103897 C66.4029709,51.6139581 66.4146911,52.0264226 66.4381319,52.4477956 C66.4615727,52.8691685 66.5406842,53.2549267 66.6754689,53.6050817 C66.8102535,53.9552367 67.0182876,54.2401043 67.2995773,54.459693 C67.580867,54.6792817 67.9793548,54.7890744 68.4950526,54.7890744 C68.8701055,54.7890744 69.2627332,54.7386291 69.6729473,54.637737 C70.0831615,54.5368449 70.5343903,54.3973785 71.0266472,54.2193336 L71.0090667,56.409275 C70.5988526,56.6466682 70.1534839,56.8158083 69.6729473,56.9167004 C69.1924107,57.0175925 68.6474201,57.0680378 68.0379591,57.0680378 C67.0534451,57.0680378 66.2652598,56.8988977 65.6733793,56.5606124 C65.0814989,56.2223271 64.62441,55.7683194 64.3020989,55.1985756 C63.9797878,54.6288319 63.7658936,53.9641409 63.66041,53.2044827 C63.5549263,52.4448244 63.5021853,51.6436343 63.5021853,50.8008884 L63.5021853,40.2962914 Z M76.3183833,40.2962914 L72.749538,40.2962914 L72.749538,38.3912205 L76.3183833,38.3912205 L76.4062859,33.5484232 L79.2191689,32.7116163 L79.2191689,38.3912205 L83.7197816,38.3912205 L83.7197816,40.2962914 L79.2191689,40.2962914 L79.2191689,51.2103897 C79.2191689,51.6139581 79.2308891,52.0264226 79.2543299,52.4477956 C79.2777707,52.8691685 79.3568823,53.2549267 79.4916669,53.6050817 C79.6264516,53.9552367 79.8344856,54.2401043 80.1157753,54.459693 C80.397065,54.6792817 80.7955528,54.7890744 81.3112506,54.7890744 C81.6863035,54.7890744 82.0789312,54.7386291 82.4891453,54.637737 C82.8993595,54.5368449 83.3505883,54.3973785 83.8428452,54.2193336 L83.8252647,56.409275 C83.4150506,56.6466682 82.9696819,56.8158083 82.4891453,56.9167004 C82.0086087,57.0175925 81.4636181,57.0680378 80.8541571,57.0680378 C79.8696431,57.0680378 79.0814578,56.8988977 78.4895773,56.5606124 C77.8976969,56.2223271 77.440608,55.7683194 77.1182969,55.1985756 C76.7959858,54.6288319 76.5820916,53.9641409 76.476608,53.2044827 C76.3711243,52.4448244 76.3183833,51.6436343 76.3183833,50.8008884 L76.3183833,40.2962914 Z M95.0943771,37.9461104 C95.8327626,37.9461104 96.5066757,38.0143599 97.1161367,38.150861 C97.7255978,38.2873621 98.2881687,38.4802412 98.8038665,38.7295041 C99.3195643,38.978767 99.7942336,39.2873735 100.227889,39.655333 C100.661543,40.0232925 101.065891,40.4387243 101.440944,40.9016411 L101.546427,38.3912205 L104.412052,38.3912205 L104.34173,42.8957341 L104.34173,56.6585366 L101.440944,56.6585366 L101.476105,54.0947027 C101.194816,54.4745319 100.840279,54.8454532 100.412484,55.2074778 C99.9846892,55.5695025 99.5012298,55.8870111 98.9620912,56.1600133 C98.4229526,56.4330155 97.828151,56.652601 97.1776686,56.8187762 C96.5271861,56.9849514 95.8444828,57.0680378 95.1295381,57.0680378 C94.1215834,57.0680378 93.2074056,56.9345061 92.3869773,56.6674388 C91.566549,56.4003714 90.8340347,56.0324175 90.1894124,55.5635659 C89.5447902,55.0947143 88.9851493,54.5457507 88.5104729,53.9166587 C88.0357965,53.2875667 87.6460989,52.6110062 87.3413684,51.8869569 C87.0366379,51.1629076 86.8080935,50.4121629 86.6557282,49.6347001 C86.503363,48.8572374 86.4271815,48.0886884 86.4271815,47.3290301 C86.4271815,46.1539337 86.605915,45.0025939 86.9633873,43.8749762 C87.3208596,42.7473584 87.8599901,41.7443872 88.580795,40.8660323 C89.3015999,39.9876774 90.2040574,39.2814432 91.2881948,38.7473085 C92.3723322,38.2131738 93.641047,37.9461104 95.0943771,37.9461104 L95.0943771,37.9461104 Z M95.428407,54.7178568 C96.2488353,54.7178568 97.0194403,54.5487167 97.7402451,54.2104314 C98.46105,53.872146 99.0939423,53.3736278 99.6389411,52.7148616 C100.18394,52.0560955 100.617588,51.2371012 100.9399,50.2578542 C101.262211,49.2786072 101.429224,48.148039 101.440944,46.8661157 C101.440944,45.9046732 101.297371,45.0263315 101.010222,44.2310642 C100.723072,43.435797 100.315794,42.747367 99.7883756,42.1657536 C99.2609574,41.5841403 98.6192749,41.1330999 97.8633088,40.8126191 C97.1073427,40.4921383 96.2605562,40.3319002 95.3229238,40.3319002 C94.6079792,40.3319002 93.9633666,40.4298235 93.3890668,40.6256729 C92.814767,40.8215223 92.3049371,41.091553 91.8595617,41.4357732 C91.4141863,41.7799933 91.0274188,42.1835557 90.6992475,42.6464725 C90.3710762,43.1093892 90.1015109,43.6049401 89.8905436,44.13314 C89.6795763,44.6613399 89.5242833,45.2103035 89.4246599,45.7800472 C89.3250364,46.3497909 89.2752255,46.9135913 89.2752255,47.4714653 C89.2752255,48.0174697 89.3133162,48.5783027 89.3894988,49.1539813 C89.4656815,49.7296598 89.5916739,50.2845581 89.76748,50.8186928 C89.9432861,51.3528276 90.1835507,51.8572806 90.4882812,52.332067 C90.7930118,52.8068534 91.1709891,53.2193179 91.6222247,53.5694729 C92.0734603,53.9196279 92.6125908,54.1985607 93.2396324,54.4062798 C93.866674,54.6139988 94.5962583,54.7178568 95.428407,54.7178568 L95.428407,54.7178568 Z M112.586993,30.0943693 L112.586993,56.6585366 L109.686207,56.6585366 L109.686207,30.0943693 L112.586993,30.0943693 Z" id="littal" fill="#CC4242" sketch:type="MSShapeGroup"></path>
            </g>
        </g>
    </g>
</svg>