<?xml version="1.0" encoding="UTF-8" standalone="no"?>
<svg width="25px" height="25px" viewBox="0 0 25 25" version="1.1" xmlns="http://www.w3.org/2000/svg" xmlns:xlink="http://www.w3.org/1999/xlink" xmlns:sketch="http://www.bohemiancoding.com/sketch/ns">
    <!-- Generator: Sketch 3.2.1 (9971) - http://www.bohemiancoding.com/sketch -->
    <title>icon-share</title>
    <desc>Created with Sketch.</desc>
    <defs></defs>
    <g id="Website" stroke="none" stroke-width="1" fill="none" fill-rule="evenodd" sketch:type="MSPage">
        <g id="Toolbar-Open" sketch:type="MSArtboardGroup" transform="translate(-1204.000000, -412.000000)" fill="#424141">
            <path d="M1225.2963,412 C1223.25093,412 1221.59259,413.721154 1221.59259,415.846154 C1221.59259,416.211538 1221.64537,416.567308 1221.73843,416.903846 L1210.91065,421.620192 C1210.27037,420.466346 1209.075,419.692308 1207.7037,419.692308 C1205.6588,419.692308 1204,421.413462 1204,423.538462 C1204,425.658654 1205.6588,427.384615 1207.7037,427.384615 C1208.775,427.384615 1209.73796,426.908654 1210.41435,426.149038 L1217.3912,431.355769 C1217.11852,431.894231 1216.96296,432.504808 1216.96296,433.149038 C1216.96296,435.274038 1218.62176,437 1220.66667,437 C1222.71157,437 1224.37037,435.274038 1224.37037,433.149038 C1224.37037,431.028846 1222.71157,429.307692 1220.66667,429.307692 C1219.5787,429.307692 1218.60324,429.798077 1217.92546,430.572115 L1210.95787,425.375 C1211.24444,424.826923 1211.40741,424.201923 1211.40741,423.538462 C1211.40741,423.177885 1211.35648,422.836538 1211.26898,422.504808 L1222.10463,417.788462 C1222.74815,418.923077 1223.93472,419.692308 1225.2963,419.692308 C1227.34167,419.692308 1229,417.966346 1229,415.846154 C1229,413.721154 1227.34167,412 1225.2963,412" id="icon-share" sketch:type="MSShapeGroup"></path>
        </g>
    </g>
</svg>
