<?xml version="1.0" encoding="UTF-8" standalone="no"?>
<svg width="24px" height="28px" viewBox="0 0 24 28" version="1.1" xmlns="http://www.w3.org/2000/svg" xmlns:xlink="http://www.w3.org/1999/xlink" xmlns:sketch="http://www.bohemiancoding.com/sketch/ns">
    <!-- Generator: Sketch 3.2.1 (9971) - http://www.bohemiancoding.com/sketch -->
    <title>Web Logo (F)</title>
    <desc>Created with Sketch.</desc>
    <defs>
        <linearGradient x1="50%" y1="76.9517134%" x2="50%" y2="89.9619763%" id="linearGradient-1">
            <stop stop-color="#CC4242" offset="0%"></stop>
            <stop stop-color="#EE6A01" offset="100%"></stop>
        </linearGradient>
        <linearGradient x1="73.1083814%" y1="112.605861%" x2="58.2665804%" y2="100%" id="linearGradient-2">
            <stop stop-color="#CC4242" offset="0%"></stop>
            <stop stop-color="#EE6A01" offset="100%"></stop>
        </linearGradient>
    </defs>
    <g id="Website" stroke="none" stroke-width="1" fill="none" fill-rule="evenodd" sketch:type="MSPage">
        <g id="Collapsed" sketch:type="MSArtboardGroup" transform="translate(-200.000000, -8.000000)">
            <g id="Web-Logo-(F)" sketch:type="MSLayerGroup" transform="translate(200.000000, 8.000000)">
                <path d="M11.4164296,27.9020991 C10.6327551,27.7470812 8.23048358,23.3393705 8.23048358,23.3393705 L13.8112865,4.37353526 C13.8112865,4.37353526 13.9577929,2.75019604 16.1278052,3.8181818 C17.9181278,4.69930081 23.8544604,4.69930067 23.8544604,4.69930067 L20.9334076,4.99300692 L15.2776501,5.52799379 L12.9447102,13.4562709 L16.945056,13.1174733 L16.5119305,14.5894097 L12.5115847,14.9282073 C12.5115847,14.9282073 10.4637543,20.4756484 9.7111522,23.033296 C9.58728202,23.4542572 12.2001042,28.057117 11.4164296,27.9020991 Z" id="F" fill="url(#linearGradient-1)" sketch:type="MSShapeGroup"></path>
                <path d="M13.9483889,8.31637967 L3.4066474,0.076032441 C3.4066474,0.076032441 3.35366599,4.13969192 7.39638606,7.3779225 C11.4391061,10.6161531 13.9483889,8.31637967 13.9483889,8.31637967 L13.9483889,8.31637967 Z" id="Path-2" fill="#CC4242" sketch:type="MSShapeGroup"></path>
                <path d="M11.8007718,11.4084846 C15.204302,10.949403 13.4721833,8.51871975 13.4721833,8.51871975 L0.306667785,8.15342298 C0.306667785,8.15342298 8.39724163,11.8675663 11.8007718,11.4084846 Z" id="Path-3" fill="url(#linearGradient-2)" sketch:type="MSShapeGroup"></path>
            </g>
        </g>
    </g>
</svg>